<?xml version="1.0" standalone="no"?>
<!DOCTYPE svg PUBLIC "-//W3C//DTD SVG 20010904//EN"
 "http://www.w3.org/TR/2001/REC-SVG-20010904/DTD/svg10.dtd">
<svg version="1.0" xmlns="http://www.w3.org/2000/svg"
 width="512.000000pt" height="512.000000pt" viewBox="0 0 512.000000 512.000000"
 preserveAspectRatio="xMidYMid meet">
<metadata>
Created by potrace 1.14, written by Peter Selinger 2001-2017
</metadata>
<g transform="translate(0.000000,512.000000) scale(0.100000,-0.100000)"
fill="#000000" stroke="none">
<path d="M1613 5100 c-257 -61 -455 -280 -488 -540 -2 -14 -8 -24 -14 -23 -5
2 -29 7 -53 12 -71 16 -199 7 -265 -19 -68 -27 -133 -69 -175 -114 -32 -33
-88 -110 -88 -121 0 -4 -7 -21 -15 -38 -55 -119 -38 -317 38 -427 l22 -33 -70
-72 c-200 -204 -239 -500 -102 -760 39 -72 163 -200 230 -235 26 -14 47 -29
47 -34 0 -8 -28 -48 -245 -348 -93 -130 -110 -158 -110 -190 0 -69 11 -73 225
-76 105 -2 190 -6 190 -8 0 -3 -26 -53 -59 -112 -32 -59 -72 -132 -89 -162
-61 -114 -198 -365 -244 -449 -43 -77 -31 -130 34 -146 39 -10 65 9 169 120
51 55 147 158 213 228 66 71 128 138 138 150 17 19 167 181 248 267 19 21 78
84 130 140 52 56 125 135 162 174 74 77 85 100 71 143 -16 46 -43 53 -215 53
-87 0 -158 3 -158 6 0 3 53 68 117 145 l117 140 19 -37 c30 -58 174 -197 247
-237 119 -66 209 -90 346 -93 190 -4 330 31 454 113 67 45 152 131 174 178 9
19 20 35 24 35 4 0 18 -19 32 -42 35 -58 128 -147 196 -188 64 -39 174 -79
216 -80 15 0 29 -4 33 -10 3 -5 -85 -130 -195 -277 -189 -251 -201 -270 -196
-302 10 -65 12 -66 271 -69 l235 -3 -255 -509 c-140 -281 -255 -519 -255 -529
0 -33 11 -51 41 -66 48 -25 67 -18 127 43 51 53 280 294 378 398 42 44 283
299 349 369 22 23 105 111 185 195 80 84 169 178 198 209 210 220 299 316 310
338 17 31 8 70 -20 95 -19 16 -45 18 -305 18 l-284 0 19 28 c11 15 31 38 44
52 13 14 46 52 73 85 52 62 94 110 134 154 13 14 31 36 41 48 l17 22 88 -31
c68 -23 110 -31 179 -33 88 -4 206 10 206 24 0 3 -4 21 -10 39 -8 31 -7 34 20
43 16 6 45 19 64 29 l36 18 21 -35 21 -34 37 27 c46 34 151 141 151 153 0 5
-13 19 -30 31 l-30 21 23 37 c13 20 31 55 39 77 9 22 20 39 25 39 4 -1 22 -5
40 -9 31 -6 31 -6 41 47 16 87 7 244 -18 318 -42 128 -128 250 -222 317 l-48
35 34 41 c118 147 137 349 47 524 -28 56 -115 149 -167 179 -112 66 -253 89
-365 60 -29 -8 -57 -13 -60 -10 -4 2 -9 18 -13 36 -3 18 -25 70 -47 116 -57
117 -165 225 -281 280 -105 50 -160 64 -273 68 -197 7 -389 -81 -512 -236
l-47 -58 -41 34 c-88 71 -194 105 -320 100 -99 -5 -179 -33 -256 -91 l-56 -43
-39 50 c-78 103 -219 195 -349 228 -80 20 -220 20 -302 0z"/>
<path d="M1935 2300 c-91 -24 -129 -40 -194 -85 -70 -49 -96 -79 -120 -140
-83 -214 131 -445 353 -381 139 41 250 226 262 436 6 95 -8 131 -63 167 -38
25 -148 26 -238 3z"/>
<path d="M2655 1661 c-152 -37 -277 -128 -314 -226 -52 -139 17 -299 158 -366
52 -25 146 -33 194 -17 140 48 247 219 264 424 7 90 -7 136 -55 172 -30 23
-46 27 -106 28 -39 1 -102 -6 -141 -15z"/>
<path d="M4270 1506 c-108 -24 -241 -98 -293 -165 -15 -19 -35 -59 -43 -89
-50 -172 87 -359 269 -368 129 -6 222 62 300 221 22 45 28 65 44 130 2 11 6
54 9 95 6 85 -10 128 -59 164 -34 25 -139 30 -227 12z"/>
<path d="M1553 1425 c-78 -14 -216 -82 -265 -130 -58 -57 -83 -118 -82 -200 1
-116 65 -214 171 -266 58 -28 167 -32 224 -7 123 53 224 234 235 422 6 94 -10
135 -66 174 -38 26 -106 28 -217 7z"/>
<path d="M3397 865 c-26 -6 -50 -13 -52 -13 -3 -1 -17 -5 -33 -8 -35 -9 -106
-48 -158 -88 -171 -128 -137 -389 63 -487 68 -33 170 -33 233 -1 63 33 106 77
147 150 48 86 73 171 79 267 6 90 -9 132 -59 169 -34 25 -145 31 -220 11z"/>
<path d="M492 619 c-162 -41 -286 -137 -317 -244 -52 -177 83 -364 268 -371
115 -5 207 53 274 173 56 101 70 149 79 269 7 82 -14 137 -63 170 -40 26 -148
28 -241 3z"/>
<path d="M1930 619 c-104 -26 -175 -65 -241 -129 -66 -65 -89 -122 -84 -207
10 -188 206 -326 379 -267 130 44 240 231 252 429 6 90 -9 132 -59 169 -39 29
-147 31 -247 5z"/>
</g>
</svg>
